<svg width="124" height="17" viewBox="0 0 124 17" fill="none" xmlns="http://www.w3.org/2000/svg">
<path d="M0.72431 16V1.00947H6.76305C8.53498 1.00947 10.0305 1.31424 11.2496 1.92379C12.4687 2.51916 13.3901 3.37677 14.0138 4.49663C14.6517 5.60231 14.9706 6.93481 14.9706 8.4941C14.9706 10.0392 14.6517 11.3717 14.0138 12.4916C13.3901 13.6114 12.4687 14.4761 11.2496 15.0857C10.0305 15.6952 8.53498 16 6.76305 16H0.72431ZM4.65799 12.8105H6.50789C8.05301 12.8105 9.19414 12.4561 9.93126 11.7474C10.6826 11.0386 11.0582 9.95418 11.0582 8.4941C11.0582 7.01986 10.6826 5.93544 9.93126 5.24084C9.19414 4.53207 8.05301 4.17768 6.50789 4.17768H4.65799V12.8105ZM21.3762 16.2339C20.4406 16.2339 19.6184 16.0142 18.9096 15.5747C18.2009 15.1211 17.6409 14.4691 17.2298 13.6185C16.8329 12.768 16.6345 11.7615 16.6345 10.5992C16.6345 9.4226 16.8329 8.41614 17.2298 7.57979C17.6409 6.72926 18.2009 6.08428 18.9096 5.64484C19.6184 5.19123 20.4406 4.96442 21.3762 4.96442C22.2125 4.96442 22.9638 5.16288 23.63 5.55979C24.3105 5.9567 24.757 6.4741 24.9696 7.112H24.757L24.9909 5.19831H28.6269C28.5844 5.68028 28.5418 6.16933 28.4993 6.66547C28.471 7.16161 28.4568 7.65067 28.4568 8.13263V16H24.7145L24.6719 14.1714H24.9271C24.7145 14.7951 24.2679 15.2983 23.5875 15.6811C22.9213 16.0496 22.1842 16.2339 21.3762 16.2339ZM22.5882 13.4272C23.226 13.4272 23.7435 13.2074 24.1404 12.768C24.5373 12.3144 24.7357 11.5914 24.7357 10.5992C24.7357 9.60688 24.5373 8.89102 24.1404 8.45158C23.7435 7.99796 23.226 7.77116 22.5882 7.77116C21.9503 7.77116 21.4329 7.99796 21.0359 8.45158C20.639 8.89102 20.4406 9.60688 20.4406 10.5992C20.4406 11.5914 20.6319 12.3144 21.0147 12.768C21.4116 13.2074 21.9361 13.4272 22.5882 13.4272ZM36.3359 16.2339C34.805 16.2339 33.6497 15.8724 32.8701 15.1495C32.1046 14.4124 31.7218 13.2996 31.7218 11.8112V7.98379H29.7018V5.19831H31.7218V2.64674L35.5067 1.75368V5.19831H38.1433V7.98379H35.5067V11.6623C35.5067 12.286 35.6484 12.7042 35.9319 12.9168C36.2155 13.1153 36.5557 13.2145 36.9526 13.2145C37.1936 13.2145 37.3991 13.2004 37.5692 13.172C37.7535 13.1295 37.9449 13.0728 38.1433 13.0019V15.9149C37.8315 16.0425 37.5196 16.1276 37.2077 16.1701C36.9101 16.2126 36.6195 16.2339 36.3359 16.2339ZM43.8644 16.2339C42.9289 16.2339 42.1067 16.0142 41.3979 15.5747C40.6891 15.1211 40.1292 14.4691 39.7181 13.6185C39.3212 12.768 39.1228 11.7615 39.1228 10.5992C39.1228 9.4226 39.3212 8.41614 39.7181 7.57979C40.1292 6.72926 40.6891 6.08428 41.3979 5.64484C42.1067 5.19123 42.9289 4.96442 43.8644 4.96442C44.7008 4.96442 45.4521 5.16288 46.1183 5.55979C46.7988 5.9567 47.2453 6.4741 47.4579 7.112H47.2453L47.4792 5.19831H51.1152C51.0726 5.68028 51.0301 6.16933 50.9876 6.66547C50.9592 7.16161 50.9451 7.65067 50.9451 8.13263V16H47.2028L47.1602 14.1714H47.4154C47.2028 14.7951 46.7562 15.2983 46.0758 15.6811C45.4096 16.0496 44.6724 16.2339 43.8644 16.2339ZM45.0764 13.4272C45.7143 13.4272 46.2317 13.2074 46.6286 12.768C47.0256 12.3144 47.224 11.5914 47.224 10.5992C47.224 9.60688 47.0256 8.89102 46.6286 8.45158C46.2317 7.99796 45.7143 7.77116 45.0764 7.77116C44.4385 7.77116 43.9211 7.99796 43.5242 8.45158C43.1273 8.89102 42.9289 9.60688 42.9289 10.5992C42.9289 11.5914 43.1202 12.3144 43.503 12.768C43.8999 13.2074 44.4244 13.4272 45.0764 13.4272ZM60.3764 16.2339C59.5543 16.2339 58.803 16.0354 58.1225 15.6385C57.4563 15.2416 57.0169 14.7171 56.8042 14.0651H57.0381V16H53.2958V0.350314H57.0807V7.02695H56.8255C57.0665 6.40323 57.513 5.90709 58.1651 5.53853C58.8313 5.15579 59.5684 4.96442 60.3764 4.96442C61.312 4.96442 62.1342 5.19123 62.843 5.64484C63.5659 6.09846 64.1258 6.75053 64.5228 7.60105C64.9338 8.45158 65.1394 9.45803 65.1394 10.6204C65.1394 11.797 64.9338 12.8034 64.5228 13.6398C64.1258 14.4761 63.5659 15.1211 62.843 15.5747C62.1342 16.0142 61.312 16.2339 60.3764 16.2339ZM59.1857 13.4272C59.8094 13.4272 60.3197 13.2074 60.7167 12.768C61.1277 12.3286 61.3333 11.6127 61.3333 10.6204C61.3333 9.62814 61.1277 8.90519 60.7167 8.45158C60.3197 7.99796 59.8094 7.77116 59.1857 7.77116C58.5478 7.77116 58.0304 7.99796 57.6335 8.45158C57.2366 8.89102 57.0381 9.60688 57.0381 10.5992C57.0381 11.5914 57.2366 12.3144 57.6335 12.768C58.0304 13.2074 58.5478 13.4272 59.1857 13.4272ZM71.2325 16.2339C70.2969 16.2339 69.4747 16.0142 68.7659 15.5747C68.0572 15.1211 67.4972 14.4691 67.0861 13.6185C66.6892 12.768 66.4908 11.7615 66.4908 10.5992C66.4908 9.4226 66.6892 8.41614 67.0861 7.57979C67.4972 6.72926 68.0572 6.08428 68.7659 5.64484C69.4747 5.19123 70.2969 4.96442 71.2325 4.96442C72.0688 4.96442 72.8201 5.16288 73.4863 5.55979C74.1668 5.9567 74.6133 6.4741 74.8259 7.112H74.6133L74.8472 5.19831H78.4832C78.4407 5.68028 78.3981 6.16933 78.3556 6.66547C78.3273 7.16161 78.3131 7.65067 78.3131 8.13263V16H74.5708L74.5282 14.1714H74.7834C74.5708 14.7951 74.1242 15.2983 73.4438 15.6811C72.7776 16.0496 72.0405 16.2339 71.2325 16.2339ZM72.4445 13.4272C73.0823 13.4272 73.5998 13.2074 73.9967 12.768C74.3936 12.3144 74.592 11.5914 74.592 10.5992C74.592 9.60688 74.3936 8.89102 73.9967 8.45158C73.5998 7.99796 73.0823 7.77116 72.4445 7.77116C71.8066 7.77116 71.2892 7.99796 70.8922 8.45158C70.4953 8.89102 70.2969 9.60688 70.2969 10.5992C70.2969 11.5914 70.4882 12.3144 70.871 12.768C71.2679 13.2074 71.7924 13.4272 72.4445 13.4272ZM84.8101 16.2339C83.8037 16.2339 82.8894 16.1347 82.0672 15.9362C81.2592 15.7236 80.5717 15.4401 80.0047 15.0857L80.919 12.6192C81.4718 12.931 82.0885 13.1862 82.7689 13.3846C83.4635 13.5831 84.151 13.6823 84.8314 13.6823C85.3701 13.6823 85.7599 13.6044 86.0009 13.4484C86.256 13.2783 86.3836 13.0586 86.3836 12.7893C86.3836 12.5766 86.3057 12.4065 86.1497 12.2789C85.9938 12.1514 85.7599 12.0592 85.448 12.0025L83.1516 11.5985C82.2444 11.4284 81.5356 11.0953 81.0253 10.5992C80.5292 10.0888 80.2811 9.42968 80.2811 8.62168C80.2811 7.88456 80.4795 7.24667 80.8765 6.708C81.2734 6.15516 81.8404 5.72989 82.5775 5.43221C83.3146 5.12035 84.1864 4.96442 85.1929 4.96442C86.0151 4.96442 86.7947 5.05656 87.5318 5.24084C88.2831 5.42512 88.9352 5.71572 89.488 6.11263L88.5099 8.51537C88.0705 8.21768 87.5531 7.9767 86.9577 7.79242C86.3765 7.59396 85.8308 7.49474 85.3205 7.49474C84.7109 7.49474 84.2786 7.58688 84.0234 7.77116C83.7682 7.94126 83.6407 8.15389 83.6407 8.40905C83.6407 8.60751 83.7115 8.77761 83.8533 8.91937C83.9951 9.04695 84.2219 9.13909 84.5337 9.19579L86.8301 9.59979C87.7657 9.75572 88.4816 10.0818 88.9777 10.5779C89.488 11.0599 89.7432 11.719 89.7432 12.5554C89.7432 13.335 89.5306 14.0013 89.1053 14.5541C88.6942 15.0928 88.1201 15.5109 87.383 15.8086C86.6459 16.0921 85.7882 16.2339 84.8101 16.2339ZM97.1185 16.2339C95.1623 16.2339 93.6384 15.7307 92.5469 14.7242C91.4696 13.7178 90.9309 12.3356 90.9309 10.5779C90.9309 9.48639 91.1577 8.51537 91.6114 7.66484C92.065 6.81431 92.7029 6.15516 93.525 5.68737C94.3472 5.2054 95.3112 4.96442 96.4168 4.96442C97.5083 4.96442 98.4156 5.2054 99.1385 5.68737C99.8756 6.15516 100.428 6.80723 100.797 7.64358C101.166 8.46575 101.35 9.4226 101.35 10.5141V11.3221H94.0992V9.536H98.5644L98.2029 9.83368C98.2029 9.02568 98.047 8.43032 97.7352 8.04758C97.4375 7.65067 97.0122 7.45221 96.4594 7.45221C95.8215 7.45221 95.3324 7.69319 94.9922 8.17516C94.6662 8.64295 94.5032 9.35172 94.5032 10.3015V10.6842C94.5032 11.634 94.737 12.3286 95.2048 12.768C95.6726 13.2074 96.346 13.4272 97.2248 13.4272C97.7919 13.4272 98.3234 13.3634 98.8196 13.2358C99.3299 13.1082 99.8119 12.9027 100.265 12.6192L101.244 15.0857C100.705 15.4542 100.081 15.7378 99.3724 15.9362C98.6636 16.1347 97.9123 16.2339 97.1185 16.2339Z" fill="#080808"/>
<path d="M110.02 16.2339C107.78 16.2339 106.101 15.6811 104.981 14.5754C103.861 13.4697 103.301 11.8182 103.301 9.62105V1.00947H107.213V9.64231C107.213 10.7338 107.44 11.5631 107.894 12.1301C108.347 12.6829 109.056 12.9594 110.02 12.9594C110.984 12.9594 111.693 12.6829 112.146 12.1301C112.6 11.5631 112.827 10.7338 112.827 9.64231V1.00947H116.697V9.62105C116.697 11.8182 116.144 13.4697 115.038 14.5754C113.933 15.6811 112.26 16.2339 110.02 16.2339ZM119.333 16V1.00947H123.267V16H119.333Z" fill="#00AAFF"/>
</svg>
