<svg width="700" height="329" viewBox="0 0 338 159" fill="none" xmlns="http://www.w3.org/2000/svg">
<path d="M74 10C74 4.47715 78.4772 0 84 0H151C156.523 0 161 4.47715 161 10V38C161 43.5228 156.523 48 151 48H74V10Z" fill="#00AAFF"/>
<path d="M80.808 17V12.552H79.096V11.36H84V12.552H82.288V17H80.808ZM84.5416 17V11.112H85.9656V13.648H85.8456C85.9789 13.3867 86.1682 13.1893 86.4136 13.056C86.6589 12.9173 86.9389 12.848 87.2536 12.848C87.7282 12.848 88.0829 12.9893 88.3176 13.272C88.5522 13.5547 88.6696 13.984 88.6696 14.56V17H87.2456V14.624C87.2456 14.3787 87.2002 14.2027 87.1096 14.096C87.0242 13.9893 86.8936 13.936 86.7176 13.936C86.4882 13.936 86.3042 14.008 86.1656 14.152C86.0322 14.296 85.9656 14.4853 85.9656 14.72V17H84.5416ZM89.5259 17V12.936H90.9499V17H89.5259ZM89.4939 12.36V11.08H90.9899V12.36H89.4939ZM93.3906 17.088C93.012 17.088 92.668 17.0507 92.3586 16.976C92.0546 16.896 91.796 16.7893 91.5826 16.656L91.9266 15.728C92.1346 15.8453 92.3666 15.9413 92.6226 16.016C92.884 16.0907 93.1426 16.128 93.3986 16.128C93.6013 16.128 93.748 16.0987 93.8386 16.04C93.9346 15.976 93.9826 15.8933 93.9826 15.792C93.9826 15.712 93.9533 15.648 93.8946 15.6C93.836 15.552 93.748 15.5173 93.6306 15.496L92.7666 15.344C92.4253 15.28 92.1586 15.1547 91.9666 14.968C91.78 14.776 91.6866 14.528 91.6866 14.224C91.6866 13.9467 91.7613 13.7067 91.9106 13.504C92.06 13.296 92.2733 13.136 92.5506 13.024C92.828 12.9067 93.156 12.848 93.5346 12.848C93.844 12.848 94.1373 12.8827 94.4146 12.952C94.6973 13.0213 94.9426 13.1307 95.1506 13.28L94.7826 14.184C94.6173 14.072 94.4226 13.9813 94.1986 13.912C93.98 13.8373 93.7746 13.8 93.5826 13.8C93.3533 13.8 93.1906 13.8347 93.0946 13.904C92.9986 13.968 92.9506 14.048 92.9506 14.144C92.9506 14.2187 92.9773 14.2827 93.0306 14.336C93.084 14.384 93.1693 14.4187 93.2866 14.44L94.1506 14.592C94.5026 14.6507 94.772 14.7733 94.9586 14.96C95.1506 15.1413 95.2466 15.3893 95.2466 15.704C95.2466 15.9973 95.1666 16.248 95.0066 16.456C94.852 16.6587 94.636 16.816 94.3586 16.928C94.0813 17.0347 93.7586 17.088 93.3906 17.088ZM100.27 17.088C99.694 17.088 99.2593 16.952 98.966 16.68C98.678 16.4027 98.534 15.984 98.534 15.424V13.984H97.774V12.936H98.534V11.976L99.958 11.64V12.936H100.95V13.984H99.958V15.368C99.958 15.6027 100.011 15.76 100.118 15.84C100.225 15.9147 100.353 15.952 100.502 15.952C100.593 15.952 100.67 15.9467 100.734 15.936C100.803 15.92 100.875 15.8987 100.95 15.872V16.968C100.833 17.016 100.715 17.048 100.598 17.064C100.486 17.08 100.377 17.088 100.27 17.088ZM101.503 17V11.112H102.927V13.648H102.807C102.94 13.3867 103.129 13.1893 103.375 13.056C103.62 12.9173 103.9 12.848 104.215 12.848C104.689 12.848 105.044 12.9893 105.279 13.272C105.513 13.5547 105.631 13.984 105.631 14.56V17H104.207V14.624C104.207 14.3787 104.161 14.2027 104.071 14.096C103.985 13.9893 103.855 13.936 103.679 13.936C103.449 13.936 103.265 14.008 103.127 14.152C102.993 14.296 102.927 14.4853 102.927 14.72V17H101.503ZM106.487 17V12.936H107.911V17H106.487ZM106.455 12.36V11.08H107.951V12.36H106.455ZM108.792 17V14.04C108.792 13.8587 108.786 13.6747 108.776 13.488C108.765 13.3013 108.749 13.1173 108.728 12.936H110.104L110.184 13.64H110.096C110.229 13.384 110.418 13.1893 110.664 13.056C110.909 12.9173 111.186 12.848 111.496 12.848C111.97 12.848 112.325 12.9893 112.56 13.272C112.8 13.5493 112.92 13.984 112.92 14.576V17H111.496V14.64C111.496 14.3787 111.45 14.1973 111.36 14.096C111.269 13.9893 111.138 13.936 110.968 13.936C110.744 13.936 110.562 14.0107 110.424 14.16C110.285 14.304 110.216 14.496 110.216 14.736V17H108.792ZM115.768 18.792C115.363 18.792 115.005 18.7547 114.696 18.68C114.392 18.6107 114.117 18.5013 113.872 18.352L114.12 17.344C114.264 17.4293 114.421 17.5013 114.592 17.56C114.763 17.6187 114.939 17.6613 115.12 17.688C115.307 17.72 115.483 17.736 115.648 17.736C115.989 17.736 116.243 17.656 116.408 17.496C116.573 17.3413 116.656 17.12 116.656 16.832V16.12H116.736C116.651 16.3547 116.483 16.544 116.232 16.688C115.981 16.8267 115.704 16.896 115.4 16.896C115.037 16.896 114.72 16.816 114.448 16.656C114.181 16.4907 113.971 16.256 113.816 15.952C113.667 15.648 113.592 15.288 113.592 14.872C113.592 14.456 113.667 14.096 113.816 13.792C113.971 13.488 114.181 13.256 114.448 13.096C114.72 12.9307 115.037 12.848 115.4 12.848C115.715 12.848 115.992 12.9173 116.232 13.056C116.472 13.1947 116.635 13.3787 116.72 13.608L116.656 13.592L116.744 12.936H118.112C118.091 13.1173 118.075 13.3013 118.064 13.488C118.053 13.6747 118.048 13.8587 118.048 14.04V16.672C118.048 17.3547 117.853 17.8773 117.464 18.24C117.075 18.608 116.509 18.792 115.768 18.792ZM115.84 15.84C116.085 15.84 116.28 15.7573 116.424 15.592C116.568 15.4267 116.64 15.1867 116.64 14.872C116.64 14.552 116.568 14.312 116.424 14.152C116.28 13.9867 116.085 13.904 115.84 13.904C115.589 13.904 115.392 13.9867 115.248 14.152C115.104 14.312 115.032 14.552 115.032 14.872C115.032 15.1867 115.104 15.4267 115.248 15.592C115.392 15.7573 115.589 15.84 115.84 15.84ZM121.237 17V12.936H122.661V17H121.237ZM121.205 12.36V11.08H122.701V12.36H121.205ZM125.102 17.088C124.723 17.088 124.379 17.0507 124.07 16.976C123.766 16.896 123.507 16.7893 123.294 16.656L123.638 15.728C123.846 15.8453 124.078 15.9413 124.334 16.016C124.595 16.0907 124.854 16.128 125.11 16.128C125.312 16.128 125.459 16.0987 125.55 16.04C125.646 15.976 125.694 15.8933 125.694 15.792C125.694 15.712 125.664 15.648 125.606 15.6C125.547 15.552 125.459 15.5173 125.342 15.496L124.478 15.344C124.136 15.28 123.87 15.1547 123.678 14.968C123.491 14.776 123.398 14.528 123.398 14.224C123.398 13.9467 123.472 13.7067 123.622 13.504C123.771 13.296 123.984 13.136 124.262 13.024C124.539 12.9067 124.867 12.848 125.246 12.848C125.555 12.848 125.848 12.8827 126.126 12.952C126.408 13.0213 126.654 13.1307 126.862 13.28L126.494 14.184C126.328 14.072 126.134 13.9813 125.91 13.912C125.691 13.8373 125.486 13.8 125.294 13.8C125.064 13.8 124.902 13.8347 124.806 13.904C124.71 13.968 124.662 14.048 124.662 14.144C124.662 14.2187 124.688 14.2827 124.742 14.336C124.795 14.384 124.88 14.4187 124.998 14.44L125.862 14.592C126.214 14.6507 126.483 14.7733 126.67 14.96C126.862 15.1413 126.958 15.3893 126.958 15.704C126.958 15.9973 126.878 16.248 126.718 16.456C126.563 16.6587 126.347 16.816 126.07 16.928C125.792 17.0347 125.47 17.088 125.102 17.088ZM132.045 17.088C131.309 17.088 130.736 16.8987 130.325 16.52C129.92 16.1413 129.717 15.6213 129.717 14.96C129.717 14.5493 129.802 14.184 129.973 13.864C130.144 13.544 130.384 13.296 130.693 13.12C131.002 12.9387 131.365 12.848 131.781 12.848C132.192 12.848 132.533 12.9387 132.805 13.12C133.082 13.296 133.29 13.5413 133.429 13.856C133.568 14.1653 133.637 14.5253 133.637 14.936V15.24H130.909V14.568H132.589L132.453 14.68C132.453 14.376 132.394 14.152 132.277 14.008C132.165 13.8587 132.005 13.784 131.797 13.784C131.557 13.784 131.373 13.8747 131.245 14.056C131.122 14.232 131.061 14.4987 131.061 14.856V15C131.061 15.3573 131.149 15.6187 131.325 15.784C131.501 15.9493 131.754 16.032 132.085 16.032C132.298 16.032 132.498 16.008 132.685 15.96C132.877 15.912 133.058 15.8347 133.229 15.728L133.597 16.656C133.394 16.7947 133.16 16.9013 132.893 16.976C132.626 17.0507 132.344 17.088 132.045 17.088ZM134.315 17V14.04C134.315 13.8587 134.31 13.6747 134.299 13.488C134.288 13.3013 134.272 13.1173 134.251 12.936H135.627L135.707 13.64H135.619C135.736 13.3947 135.91 13.2027 136.139 13.064C136.368 12.92 136.638 12.848 136.947 12.848C137.246 12.848 137.499 12.92 137.707 13.064C137.92 13.2027 138.075 13.424 138.171 13.728H138.035C138.168 13.4507 138.36 13.2347 138.611 13.08C138.867 12.9253 139.152 12.848 139.467 12.848C139.931 12.848 140.278 12.9893 140.507 13.272C140.736 13.5493 140.851 13.984 140.851 14.576V17H139.419V14.624C139.419 14.3733 139.382 14.1973 139.307 14.096C139.232 13.9893 139.112 13.936 138.947 13.936C138.739 13.936 138.576 14.0107 138.459 14.16C138.347 14.3093 138.291 14.5147 138.291 14.776V17H136.867V14.624C136.867 14.3733 136.827 14.1973 136.747 14.096C136.672 13.9893 136.555 13.936 136.395 13.936C136.187 13.936 136.024 14.0107 135.907 14.16C135.795 14.3093 135.739 14.5147 135.739 14.776V17H134.315ZM141.706 18.728V14.04C141.706 13.8587 141.7 13.6747 141.69 13.488C141.679 13.3013 141.663 13.1173 141.642 12.936H143.018L143.106 13.656H143.026C143.1 13.416 143.266 13.2213 143.522 13.072C143.778 12.9227 144.063 12.848 144.378 12.848C144.73 12.848 145.039 12.9333 145.306 13.104C145.572 13.2693 145.78 13.512 145.93 13.832C146.084 14.1467 146.162 14.5253 146.162 14.968C146.162 15.4053 146.084 15.784 145.93 16.104C145.78 16.424 145.572 16.6693 145.306 16.84C145.039 17.0053 144.73 17.088 144.378 17.088C144.068 17.088 143.788 17.0187 143.538 16.88C143.287 16.736 143.122 16.5467 143.042 16.312H143.13V18.728H141.706ZM143.922 16.032C144.167 16.032 144.362 15.9493 144.506 15.784C144.655 15.6133 144.73 15.3413 144.73 14.968C144.73 14.5947 144.655 14.3253 144.506 14.16C144.362 13.9893 144.167 13.904 143.922 13.904C143.682 13.904 143.487 13.9893 143.338 14.16C143.188 14.3253 143.114 14.5947 143.114 14.968C143.114 15.3413 143.188 15.6133 143.338 15.784C143.487 15.9493 143.682 16.032 143.922 16.032ZM148.895 17.088C148.319 17.088 147.884 16.952 147.591 16.68C147.303 16.4027 147.159 15.984 147.159 15.424V13.984H146.399V12.936H147.159V11.976L148.583 11.64V12.936H149.575V13.984H148.583V15.368C148.583 15.6027 148.636 15.76 148.743 15.84C148.85 15.9147 148.978 15.952 149.127 15.952C149.218 15.952 149.295 15.9467 149.359 15.936C149.428 15.92 149.5 15.8987 149.575 15.872V16.968C149.458 17.016 149.34 17.048 149.223 17.064C149.111 17.08 149.002 17.088 148.895 17.088ZM150.214 18.816L149.878 17.712C150.134 17.664 150.347 17.6107 150.518 17.552C150.694 17.4987 150.838 17.424 150.95 17.328C151.062 17.232 151.15 17.1067 151.214 16.952L151.414 16.488L151.382 17.024L149.606 12.936H151.11L152.15 15.632H151.886L152.958 12.936H154.366L152.542 17.088C152.398 17.4133 152.243 17.68 152.078 17.888C151.918 18.096 151.742 18.2613 151.55 18.384C151.363 18.5067 151.158 18.5973 150.934 18.656C150.715 18.72 150.475 18.7733 150.214 18.816ZM154.875 15.096L154.435 11.36H156.179L155.731 15.096H154.875ZM154.563 17V15.544H156.043V17H154.563ZM79.52 27V21.36H81V25.776H83.416V27H79.52ZM86.1699 27.088C85.4339 27.088 84.8606 26.8987 84.4499 26.52C84.0446 26.1413 83.8419 25.6213 83.8419 24.96C83.8419 24.5493 83.9273 24.184 84.0979 23.864C84.2686 23.544 84.5086 23.296 84.8179 23.12C85.1273 22.9387 85.4899 22.848 85.9059 22.848C86.3166 22.848 86.6579 22.9387 86.9299 23.12C87.2073 23.296 87.4153 23.5413 87.5539 23.856C87.6926 24.1653 87.7619 24.5253 87.7619 24.936V25.24H85.0339V24.568H86.7139L86.5779 24.68C86.5779 24.376 86.5193 24.152 86.4019 24.008C86.2899 23.8587 86.1299 23.784 85.9219 23.784C85.6819 23.784 85.4979 23.8747 85.3699 24.056C85.2473 24.232 85.1859 24.4987 85.1859 24.856V25C85.1859 25.3573 85.2739 25.6187 85.4499 25.784C85.6259 25.9493 85.8793 26.032 86.2099 26.032C86.4233 26.032 86.6233 26.008 86.8099 25.96C87.0019 25.912 87.1833 25.8347 87.3539 25.728L87.7219 26.656C87.5193 26.7947 87.2846 26.9013 87.0179 26.976C86.7513 27.0507 86.4686 27.088 86.1699 27.088ZM90.4888 27.088C89.9128 27.088 89.4781 26.952 89.1848 26.68C88.8968 26.4027 88.7528 25.984 88.7528 25.424V23.984H87.9928V22.936H88.7528V21.976L90.1768 21.64V22.936H91.1688V23.984H90.1768V25.368C90.1768 25.6027 90.2301 25.76 90.3368 25.84C90.4434 25.9147 90.5714 25.952 90.7208 25.952C90.8114 25.952 90.8888 25.9467 90.9528 25.936C91.0221 25.92 91.0941 25.8987 91.1688 25.872V26.968C91.0514 27.016 90.9341 27.048 90.8168 27.064C90.7048 27.08 90.5954 27.088 90.4888 27.088ZM92.3441 24.056L91.8161 23.632C92.0188 23.4293 92.1655 23.2373 92.2561 23.056C92.3468 22.8747 92.3921 22.68 92.3921 22.472L92.7041 22.816H91.6801V21.36H93.1601V22.28C93.1601 22.616 93.0988 22.9227 92.9761 23.2C92.8588 23.472 92.6481 23.7573 92.3441 24.056ZM95.2969 27.088C94.9182 27.088 94.5742 27.0507 94.2649 26.976C93.9609 26.896 93.7022 26.7893 93.4889 26.656L93.8329 25.728C94.0409 25.8453 94.2729 25.9413 94.5289 26.016C94.7902 26.0907 95.0489 26.128 95.3049 26.128C95.5075 26.128 95.6542 26.0987 95.7449 26.04C95.8409 25.976 95.8889 25.8933 95.8889 25.792C95.8889 25.712 95.8595 25.648 95.8009 25.6C95.7422 25.552 95.6542 25.5173 95.5369 25.496L94.6729 25.344C94.3315 25.28 94.0649 25.1547 93.8729 24.968C93.6862 24.776 93.5929 24.528 93.5929 24.224C93.5929 23.9467 93.6675 23.7067 93.8169 23.504C93.9662 23.296 94.1795 23.136 94.4569 23.024C94.7342 22.9067 95.0622 22.848 95.4409 22.848C95.7502 22.848 96.0435 22.8827 96.3209 22.952C96.6035 23.0213 96.8489 23.1307 97.0569 23.28L96.6889 24.184C96.5235 24.072 96.3289 23.9813 96.1049 23.912C95.8862 23.8373 95.6809 23.8 95.4889 23.8C95.2595 23.8 95.0969 23.8347 95.0009 23.904C94.9049 23.968 94.8569 24.048 94.8569 24.144C94.8569 24.2187 94.8835 24.2827 94.9369 24.336C94.9902 24.384 95.0755 24.4187 95.1929 24.44L96.0569 24.592C96.4089 24.6507 96.6782 24.7733 96.8649 24.96C97.0569 25.1413 97.1529 25.3893 97.1529 25.704C97.1529 25.9973 97.0729 26.248 96.9129 26.456C96.7582 26.6587 96.5422 26.816 96.2649 26.928C95.9875 27.0347 95.6649 27.088 95.2969 27.088ZM100.44 27V23.984H99.6803V22.936H100.84L100.44 23.304V22.752C100.44 22.192 100.584 21.7733 100.872 21.496C101.16 21.2187 101.582 21.08 102.136 21.08C102.275 21.08 102.419 21.088 102.568 21.104C102.718 21.12 102.851 21.152 102.968 21.2V22.288C102.894 22.2613 102.808 22.2427 102.712 22.232C102.616 22.216 102.523 22.208 102.432 22.208C102.272 22.208 102.136 22.2507 102.024 22.336C101.912 22.416 101.856 22.568 101.856 22.792V23.152L101.656 22.936H104.744V27H103.32V23.984H101.864V27H100.44ZM103.28 22.36V21.08H104.776V22.36H103.28ZM105.628 27V21.112H107.052V27H105.628ZM107.932 27V21.112H109.356V27H107.932ZM112.549 27V22.936H113.973V27H112.549ZM112.517 22.36V21.08H114.013V22.36H112.517ZM116.934 27.088C116.358 27.088 115.923 26.952 115.63 26.68C115.342 26.4027 115.198 25.984 115.198 25.424V23.984H114.438V22.936H115.198V21.976L116.622 21.64V22.936H117.614V23.984H116.622V25.368C116.622 25.6027 116.675 25.76 116.782 25.84C116.889 25.9147 117.017 25.952 117.166 25.952C117.257 25.952 117.334 25.9467 117.398 25.936C117.467 25.92 117.539 25.8987 117.614 25.872V26.968C117.497 27.016 117.379 27.048 117.262 27.064C117.15 27.08 117.041 27.088 116.934 27.088ZM121.655 27L119.967 22.936H121.415L122.423 25.608H122.223L123.215 22.936H124.119L125.119 25.608H124.951L125.943 22.936H127.303L125.631 27H124.439L123.343 24.24H123.887L122.847 27H121.655ZM127.682 27V22.936H129.106V27H127.682ZM127.65 22.36V21.08H129.146V22.36H127.65ZM132.067 27.088C131.491 27.088 131.056 26.952 130.763 26.68C130.475 26.4027 130.331 25.984 130.331 25.424V23.984H129.571V22.936H130.331V21.976L131.755 21.64V22.936H132.747V23.984H131.755V25.368C131.755 25.6027 131.808 25.76 131.915 25.84C132.022 25.9147 132.15 25.952 132.299 25.952C132.39 25.952 132.467 25.9467 132.531 25.936C132.6 25.92 132.672 25.8987 132.747 25.872V26.968C132.63 27.016 132.512 27.048 132.395 27.064C132.283 27.08 132.174 27.088 132.067 27.088ZM133.299 27V21.112H134.723V23.648H134.603C134.737 23.3867 134.926 23.1893 135.171 23.056C135.417 22.9173 135.697 22.848 136.011 22.848C136.486 22.848 136.841 22.9893 137.075 23.272C137.31 23.5547 137.427 23.984 137.427 24.56V27H136.003V24.624C136.003 24.3787 135.958 24.2027 135.867 24.096C135.782 23.9893 135.651 23.936 135.475 23.936C135.246 23.936 135.062 24.008 134.923 24.152C134.79 24.296 134.723 24.4853 134.723 24.72V27H133.299ZM81 37.088C80.6213 37.088 80.2773 37.0507 79.968 36.976C79.664 36.896 79.4053 36.7893 79.192 36.656L79.536 35.728C79.744 35.8453 79.976 35.9413 80.232 36.016C80.4933 36.0907 80.752 36.128 81.008 36.128C81.2107 36.128 81.3573 36.0987 81.448 36.04C81.544 35.976 81.592 35.8933 81.592 35.792C81.592 35.712 81.5627 35.648 81.504 35.6C81.4453 35.552 81.3573 35.5173 81.24 35.496L80.376 35.344C80.0347 35.28 79.768 35.1547 79.576 34.968C79.3893 34.776 79.296 34.528 79.296 34.224C79.296 33.9467 79.3707 33.7067 79.52 33.504C79.6693 33.296 79.8827 33.136 80.16 33.024C80.4373 32.9067 80.7653 32.848 81.144 32.848C81.4533 32.848 81.7467 32.8827 82.024 32.952C82.3067 33.0213 82.552 33.1307 82.76 33.28L82.392 34.184C82.2267 34.072 82.032 33.9813 81.808 33.912C81.5893 33.8373 81.384 33.8 81.192 33.8C80.9627 33.8 80.8 33.8347 80.704 33.904C80.608 33.968 80.56 34.048 80.56 34.144C80.56 34.2187 80.5867 34.2827 80.64 34.336C80.6933 34.384 80.7787 34.4187 80.896 34.44L81.76 34.592C82.112 34.6507 82.3813 34.7733 82.568 34.96C82.76 35.1413 82.856 35.3893 82.856 35.704C82.856 35.9973 82.776 36.248 82.616 36.456C82.4613 36.6587 82.2453 36.816 81.968 36.928C81.6907 37.0347 81.368 37.088 81 37.088ZM85.5189 37.088C85.0655 37.088 84.6735 37.0027 84.3429 36.832C84.0122 36.6613 83.7562 36.4187 83.5749 36.104C83.3935 35.784 83.3029 35.4053 83.3029 34.968C83.3029 34.5253 83.3935 34.1467 83.5749 33.832C83.7562 33.5173 84.0122 33.2747 84.3429 33.104C84.6735 32.9333 85.0655 32.848 85.5189 32.848C85.9669 32.848 86.3562 32.9333 86.6869 33.104C87.0175 33.2747 87.2735 33.52 87.4549 33.84C87.6362 34.1547 87.7269 34.5307 87.7269 34.968C87.7269 35.4 87.6362 35.776 87.4549 36.096C87.2735 36.416 87.0175 36.6613 86.6869 36.832C86.3562 37.0027 85.9669 37.088 85.5189 37.088ZM85.5189 36.032C85.7535 36.032 85.9402 35.9493 86.0789 35.784C86.2175 35.6133 86.2869 35.3413 86.2869 34.968C86.2869 34.5947 86.2175 34.3253 86.0789 34.16C85.9402 33.9893 85.7535 33.904 85.5189 33.904C85.2789 33.904 85.0895 33.9893 84.9509 34.16C84.8122 34.3253 84.7429 34.5947 84.7429 34.968C84.7429 35.3413 84.8122 35.6133 84.9509 35.784C85.0895 35.9493 85.2789 36.032 85.5189 36.032ZM88.4244 37V34.04C88.4244 33.8587 88.419 33.6747 88.4084 33.488C88.3977 33.3013 88.3817 33.1173 88.3604 32.936H89.7364L89.8164 33.64H89.7284C89.8457 33.3947 90.019 33.2027 90.2484 33.064C90.4777 32.92 90.747 32.848 91.0564 32.848C91.355 32.848 91.6084 32.92 91.8164 33.064C92.0297 33.2027 92.1844 33.424 92.2804 33.728H92.1444C92.2777 33.4507 92.4697 33.2347 92.7204 33.08C92.9764 32.9253 93.2617 32.848 93.5764 32.848C94.0404 32.848 94.387 32.9893 94.6164 33.272C94.8457 33.5493 94.9604 33.984 94.9604 34.576V37H93.5284V34.624C93.5284 34.3733 93.491 34.1973 93.4164 34.096C93.3417 33.9893 93.2217 33.936 93.0564 33.936C92.8484 33.936 92.6857 34.0107 92.5684 34.16C92.4564 34.3093 92.4004 34.5147 92.4004 34.776V37H90.9764V34.624C90.9764 34.3733 90.9364 34.1973 90.8564 34.096C90.7817 33.9893 90.6644 33.936 90.5044 33.936C90.2964 33.936 90.1337 34.0107 90.0164 34.16C89.9044 34.3093 89.8484 34.5147 89.8484 34.776V37H88.4244ZM97.959 37.088C97.223 37.088 96.6497 36.8987 96.239 36.52C95.8337 36.1413 95.631 35.6213 95.631 34.96C95.631 34.5493 95.7163 34.184 95.887 33.864C96.0577 33.544 96.2977 33.296 96.607 33.12C96.9163 32.9387 97.279 32.848 97.695 32.848C98.1057 32.848 98.447 32.9387 98.719 33.12C98.9963 33.296 99.2043 33.5413 99.343 33.856C99.4817 34.1653 99.551 34.5253 99.551 34.936V35.24H96.823V34.568H98.503L98.367 34.68C98.367 34.376 98.3083 34.152 98.191 34.008C98.079 33.8587 97.919 33.784 97.711 33.784C97.471 33.784 97.287 33.8747 97.159 34.056C97.0363 34.232 96.975 34.4987 96.975 34.856V35C96.975 35.3573 97.063 35.6187 97.239 35.784C97.415 35.9493 97.6683 36.032 97.999 36.032C98.2123 36.032 98.4123 36.008 98.599 35.96C98.791 35.912 98.9723 35.8347 99.143 35.728L99.511 36.656C99.3083 36.7947 99.0737 36.9013 98.807 36.976C98.5403 37.0507 98.2577 37.088 97.959 37.088ZM102.542 38.728V34.04C102.542 33.8587 102.536 33.6747 102.526 33.488C102.515 33.3013 102.499 33.1173 102.478 32.936H103.854L103.942 33.656H103.862C103.936 33.416 104.102 33.2213 104.358 33.072C104.614 32.9227 104.899 32.848 105.214 32.848C105.566 32.848 105.875 32.9333 106.142 33.104C106.408 33.2693 106.616 33.512 106.766 33.832C106.92 34.1467 106.998 34.5253 106.998 34.968C106.998 35.4053 106.92 35.784 106.766 36.104C106.616 36.424 106.408 36.6693 106.142 36.84C105.875 37.0053 105.566 37.088 105.214 37.088C104.904 37.088 104.624 37.0187 104.374 36.88C104.123 36.736 103.958 36.5467 103.878 36.312H103.966V38.728H102.542ZM104.758 36.032C105.003 36.032 105.198 35.9493 105.342 35.784C105.491 35.6133 105.566 35.3413 105.566 34.968C105.566 34.5947 105.491 34.3253 105.342 34.16C105.198 33.9893 105.003 33.904 104.758 33.904C104.518 33.904 104.323 33.9893 104.174 34.16C104.024 34.3253 103.95 34.5947 103.95 34.968C103.95 35.3413 104.024 35.6133 104.174 35.784C104.323 35.9493 104.518 36.032 104.758 36.032ZM109.722 37.088C109.269 37.088 108.877 37.0027 108.546 36.832C108.215 36.6613 107.959 36.4187 107.778 36.104C107.597 35.784 107.506 35.4053 107.506 34.968C107.506 34.5253 107.597 34.1467 107.778 33.832C107.959 33.5173 108.215 33.2747 108.546 33.104C108.877 32.9333 109.269 32.848 109.722 32.848C110.17 32.848 110.559 32.9333 110.89 33.104C111.221 33.2747 111.477 33.52 111.658 33.84C111.839 34.1547 111.93 34.5307 111.93 34.968C111.93 35.4 111.839 35.776 111.658 36.096C111.477 36.416 111.221 36.6613 110.89 36.832C110.559 37.0027 110.17 37.088 109.722 37.088ZM109.722 36.032C109.957 36.032 110.143 35.9493 110.282 35.784C110.421 35.6133 110.49 35.3413 110.49 34.968C110.49 34.5947 110.421 34.3253 110.282 34.16C110.143 33.9893 109.957 33.904 109.722 33.904C109.482 33.904 109.293 33.9893 109.154 34.16C109.015 34.3253 108.946 34.5947 108.946 34.968C108.946 35.3413 109.015 35.6133 109.154 35.784C109.293 35.9493 109.482 36.032 109.722 36.032ZM114.188 37.088C113.809 37.088 113.465 37.0507 113.156 36.976C112.852 36.896 112.593 36.7893 112.38 36.656L112.724 35.728C112.932 35.8453 113.164 35.9413 113.42 36.016C113.681 36.0907 113.94 36.128 114.196 36.128C114.398 36.128 114.545 36.0987 114.636 36.04C114.732 35.976 114.78 35.8933 114.78 35.792C114.78 35.712 114.75 35.648 114.692 35.6C114.633 35.552 114.545 35.5173 114.428 35.496L113.564 35.344C113.222 35.28 112.956 35.1547 112.764 34.968C112.577 34.776 112.484 34.528 112.484 34.224C112.484 33.9467 112.558 33.7067 112.708 33.504C112.857 33.296 113.07 33.136 113.348 33.024C113.625 32.9067 113.953 32.848 114.332 32.848C114.641 32.848 114.934 32.8827 115.212 32.952C115.494 33.0213 115.74 33.1307 115.948 33.28L115.58 34.184C115.414 34.072 115.22 33.9813 114.996 33.912C114.777 33.8373 114.572 33.8 114.38 33.8C114.15 33.8 113.988 33.8347 113.892 33.904C113.796 33.968 113.748 34.048 113.748 34.144C113.748 34.2187 113.774 34.2827 113.828 34.336C113.881 34.384 113.966 34.4187 114.084 34.44L114.948 34.592C115.3 34.6507 115.569 34.7733 115.756 34.96C115.948 35.1413 116.044 35.3893 116.044 35.704C116.044 35.9973 115.964 36.248 115.804 36.456C115.649 36.6587 115.433 36.816 115.156 36.928C114.878 37.0347 114.556 37.088 114.188 37.088ZM118.715 37.088C118.139 37.088 117.705 36.952 117.411 36.68C117.123 36.4027 116.979 35.984 116.979 35.424V33.984H116.219V32.936H116.979V31.976L118.403 31.64V32.936H119.395V33.984H118.403V35.368C118.403 35.6027 118.457 35.76 118.563 35.84C118.67 35.9147 118.798 35.952 118.947 35.952C119.038 35.952 119.115 35.9467 119.179 35.936C119.249 35.92 119.321 35.8987 119.395 35.872V36.968C119.278 37.016 119.161 37.048 119.043 37.064C118.931 37.08 118.822 37.088 118.715 37.088ZM121.508 37.088C121.129 37.088 120.785 37.0507 120.476 36.976C120.172 36.896 119.913 36.7893 119.7 36.656L120.044 35.728C120.252 35.8453 120.484 35.9413 120.74 36.016C121.001 36.0907 121.26 36.128 121.516 36.128C121.718 36.128 121.865 36.0987 121.956 36.04C122.052 35.976 122.1 35.8933 122.1 35.792C122.1 35.712 122.07 35.648 122.012 35.6C121.953 35.552 121.865 35.5173 121.748 35.496L120.884 35.344C120.542 35.28 120.276 35.1547 120.084 34.968C119.897 34.776 119.804 34.528 119.804 34.224C119.804 33.9467 119.878 33.7067 120.028 33.504C120.177 33.296 120.39 33.136 120.668 33.024C120.945 32.9067 121.273 32.848 121.652 32.848C121.961 32.848 122.254 32.8827 122.532 32.952C122.814 33.0213 123.06 33.1307 123.268 33.28L122.9 34.184C122.734 34.072 122.54 33.9813 122.316 33.912C122.097 33.8373 121.892 33.8 121.7 33.8C121.47 33.8 121.308 33.8347 121.212 33.904C121.116 33.968 121.068 34.048 121.068 34.144C121.068 34.2187 121.094 34.2827 121.148 34.336C121.201 34.384 121.286 34.4187 121.404 34.44L122.268 34.592C122.62 34.6507 122.889 34.7733 123.076 34.96C123.268 35.1413 123.364 35.3893 123.364 35.704C123.364 35.9973 123.284 36.248 123.124 36.456C122.969 36.6587 122.753 36.816 122.476 36.928C122.198 37.0347 121.876 37.088 121.508 37.088ZM124.211 35.096L123.771 31.36H125.515L125.067 35.096H124.211ZM123.899 37V35.544H125.379V37H123.899ZM126.39 35.096L125.95 31.36H127.694L127.246 35.096H126.39ZM126.078 37V35.544H127.558V37H126.078ZM128.57 35.096L128.13 31.36H129.874L129.426 35.096H128.57ZM128.258 37V35.544H129.738V37H128.258Z" fill="white"/>
<path d="M59.5 51C59.5 62.816 48.5929 72.5 35 72.5C21.4071 72.5 10.5 62.816 10.5 51C10.5 39.184 21.4071 29.5 35 29.5C48.5929 29.5 59.5 39.184 59.5 51Z" stroke="black"/>
<path d="M15 131C30.3049 132.715 38.6166 131.982 53 128" stroke="black" stroke-linecap="round"/>
<path d="M21 69C17.8013 70.6164 14.1527 107.157 15 131" stroke="black" stroke-linecap="round"/>
<path d="M53 128C50.3904 104.576 47.6814 91.4487 51 68" stroke="black" stroke-linecap="round"/>
<circle cx="38" cy="49" r="1" fill="black"/>
<circle cx="49" cy="48" r="1" fill="black"/>
<path d="M38.9548 58.5021C43.2288 56.4709 45.6363 56.3297 49.9548 57.5021" stroke="black" stroke-linecap="round"/>
<line x1="50.346" y1="80.3833" x2="81.3833" y2="71.654" stroke="black" stroke-linecap="round"/>
<path d="M84.5455 70.5859C84.5566 70.6274 84.5508 70.7808 84.2836 71.0177C84.0365 71.2369 83.6418 71.4492 83.1553 71.5795C82.6688 71.7099 82.2208 71.7234 81.8972 71.6571C81.5473 71.5856 81.4656 71.4556 81.4545 71.4141C81.4434 71.3725 81.4492 71.2192 81.7163 70.9823C81.9635 70.7631 82.3582 70.5508 82.8447 70.4204C83.3312 70.2901 83.7792 70.2766 84.1028 70.3428C84.4527 70.4144 84.5343 70.5443 84.5455 70.5859Z" stroke="black" stroke-width="0.8"/>
<path d="M46.6 158C46.6 158.043 46.5547 158.19 46.2353 158.349C45.9398 158.497 45.5037 158.6 45 158.6C44.4963 158.6 44.0602 158.497 43.7647 158.349C43.4453 158.19 43.4 158.043 43.4 158C43.4 157.957 43.4453 157.81 43.7647 157.651C44.0602 157.503 44.4963 157.4 45 157.4C45.5037 157.4 45.9398 157.503 46.2353 157.651C46.5547 157.81 46.6 157.957 46.6 158Z" stroke="black" stroke-width="0.8"/>
<path d="M26.6 158C26.6 158.043 26.5547 158.19 26.2353 158.349C25.9398 158.497 25.5037 158.6 25 158.6C24.4963 158.6 24.0602 158.497 23.7647 158.349C23.4453 158.19 23.4 158.043 23.4 158C23.4 157.957 23.4453 157.81 23.7647 157.651C24.0602 157.503 24.4963 157.4 25 157.4C25.5037 157.4 25.9398 157.503 26.2353 157.651C26.5547 157.81 26.6 157.957 26.6 158Z" stroke="black" stroke-width="0.8"/>
<line x1="17.9564" y1="79.608" x2="9.99752" y2="110.852" stroke="black" stroke-linecap="round"/>
<path d="M9.34146 114.124C9.29992 114.113 9.17001 114.031 9.09841 113.682C9.03218 113.358 9.04566 112.91 9.17602 112.424C9.30637 111.937 9.51868 111.542 9.73787 111.295C9.9748 111.028 10.1281 111.022 10.1697 111.033C10.2112 111.044 10.3411 111.126 10.4127 111.476C10.479 111.8 10.4655 112.248 10.3351 112.734C10.2048 113.221 9.99246 113.615 9.77328 113.862C9.53635 114.13 9.38301 114.135 9.34146 114.124Z" stroke="black" stroke-width="0.8"/>
<path d="M22.9301 76.7743C22.9301 78.6989 22.9602 80.6261 22.9301 82.5503C22.9129 83.6509 22.7783 84.9094 22.611 85.9968C22.4346 87.1431 22.4993 88.3249 22.4993 89.4831C22.4993 92.1214 22.1352 94.805 21.8132 97.4212C21.5342 99.688 21.4941 101.989 21.4941 104.274C21.4941 108.488 20.7761 112.677 20.7761 116.903C20.7761 118.259 20.7761 119.616 20.7761 120.972C20.7761 121.802 20.5941 122.832 21.1271 123.517C22.0719 124.732 22.44 126.534 23.7199 127.53C24.448 128.096 25.2109 128.04 26.0894 128.04C26.5095 128.04 26.9297 128.04 27.3499 128.04C28.0197 128.04 28.4649 127.709 29.105 127.618C30.2789 127.45 31.4061 126.989 32.5834 126.78C33.7564 126.571 34.9202 126.293 36.0697 126.038C36.8699 125.86 37.7049 125.966 38.5189 125.775C38.9647 125.67 39.397 125.768 39.8433 125.631C40.1536 125.536 40.6316 125.456 40.9522 125.456C41.6621 125.456 42.4493 124.819 43.1781 124.738C43.8484 124.663 44.5854 124.146 45.1885 123.844C45.6521 123.612 45.9065 122.593 45.9065 122.081C45.9065 120.597 45.9065 119.113 45.9065 117.629C45.9065 112.361 45.9065 107.093 45.9065 101.825C45.9065 100.487 45.9065 99.1497 45.9065 97.8121C45.9065 96.8837 45.4757 96.0662 45.4757 95.1554C45.4757 93.7865 44.9013 92.2806 44.9013 90.8474C44.9013 89.0763 44.9013 87.3052 44.9013 85.5341C44.9013 84.6654 44.7853 83.7385 44.3907 82.9492C44.1724 82.5127 44.0301 81.9345 43.6807 81.585C43.4256 81.33 43.0889 80.9654 42.9228 80.6516C41.4774 77.9215 38.5369 77.2348 35.7825 76.6227C35.0132 76.4518 34.2205 76.4871 33.4131 76.4871C32.6974 76.4871 32.062 76.1999 31.3308 76.1999C30.6487 76.1999 29.9756 75.9127 29.2486 75.9127C28.4588 75.9127 27.669 75.9127 26.8792 75.9127C26.2148 75.9127 25.562 75.7691 24.8687 75.7691C23.7217 75.7691 23.5045 77.0256 23.5045 77.9231C23.5045 78.7204 23.4488 79.4617 23.7199 80.2208C24.0923 81.2635 23.9105 82.4377 23.9353 83.5556C23.9565 84.51 24.3335 85.7761 25.4511 85.6697C26.4983 85.57 27.9031 84.089 28.6742 83.388C29.2509 82.8637 29.879 82.3977 30.5091 81.944C30.9785 81.6061 31.6898 80.4716 31.6898 79.8618C31.6898 79.3366 31.5249 79.285 30.9718 79.2235C29.8014 79.0935 28.5583 79.2156 27.3818 79.2156C26.2975 79.2156 25.2277 80.1219 25.2277 81.2579C25.2277 82.9128 25.0823 84.2173 26.5999 85.183C27.3514 85.6613 28.9115 85.4577 29.7113 85.2947C31.4668 84.9371 32.9836 83.8923 34.8172 83.8108C35.5627 83.7777 36.9352 83.3256 36.708 82.303C36.5882 81.7641 33.5241 81.5007 33.0621 81.4494C32.1007 81.3426 31.0804 81.3157 30.1102 81.3696C29.1259 81.4243 29.2486 83.8385 29.2486 84.465C29.2486 85.5829 30.5095 86.273 31.5143 86.2521C33.7759 86.205 35.0386 83.2284 36.6441 81.944C36.8332 81.7927 36.7159 81.0172 36.7159 80.8032C36.7159 80.1464 36.4625 80.015 35.9261 79.7262C33.8926 78.6312 31.2441 82.515 30.4293 83.8428C29.6926 85.0433 28.7265 85.1055 27.7886 85.9808C25.8156 87.8223 24.3661 89.8315 24.3661 92.6025C24.3661 94.9058 24.9114 97.1484 25.2995 99.3997C25.6994 101.719 25.9457 104.177 25.9457 106.532C25.9457 107.921 26.0922 109.395 25.7942 110.736C25.4268 112.389 24.5724 113.904 24.5097 115.659C24.429 117.919 24.3661 120.213 24.3661 122.512C24.3661 123.034 24.4185 125.552 25.2277 125.599C26.7732 125.69 28.4383 124.83 29.8948 124.387C31.9542 123.76 34.1084 123.732 36.2532 123.732C37.1664 123.732 38.0499 123.302 38.9418 123.302C39.7631 123.302 40.9928 122.486 41.3431 121.786C41.521 121.43 41.4829 120.95 41.5665 120.541C41.686 119.957 41.9536 119.435 42.0372 118.85C42.166 117.948 42.5346 117.045 42.5957 116.129C42.6467 115.364 42.6036 114.583 42.6036 113.816C42.6036 112.191 42.6036 110.566 42.6036 108.941C42.6036 106.896 42.3164 104.896 42.3164 102.846C42.3164 100.102 42.3164 97.3573 42.3164 94.6129C42.3164 93.1036 42.0292 91.6205 42.0292 90.0974C42.0292 89.2491 42.0292 88.4008 42.0292 87.5525C42.0292 85.9171 42.3211 83.8768 41.4867 82.3748C41.068 81.6211 38.4686 81.7911 37.9366 82.1594C35.4281 83.896 32.6032 85.0439 29.9985 86.651C29.5013 86.9578 27.3516 88.7826 27.7009 89.4113C27.9729 89.901 28.9427 90.1382 29.4241 90.3049C30.8794 90.8086 32.0782 89.387 33.0301 88.5019C33.4408 88.1201 38.8326 83.0696 39.4364 85.183C39.6959 86.0914 39.3864 87.1249 38.6945 87.6881C37.6807 88.5132 36.7259 89.3496 35.6309 90.0655C35.1505 90.3796 34.7746 90.7038 34.2029 90.7038C33.0454 90.7038 31.7938 90.5088 30.6687 90.624C29.6796 90.7253 24.2123 92.1296 26.0176 93.9348C26.5518 94.469 27.2579 94.7929 27.8924 95.1554C28.2413 95.3548 28.5893 95.3273 28.9056 95.0597C29.671 94.412 30.5197 93.7765 31.4026 93.2886C32.4316 92.72 33.0724 91.9962 34.2667 91.9962C35.9727 91.9962 37.8588 91.9951 39.4444 92.7461C40.1417 93.0764 41.4497 93.7984 40.4257 94.6688C38.9078 95.9589 37.2973 96.8216 35.3597 97.2776C34.7896 97.4117 33.9322 97.3769 33.4131 97.1021C32.2152 96.4679 30.9693 96.8787 29.6156 96.8787C28.4917 96.8787 29.5876 98.144 29.7911 98.6019C29.8973 98.8409 29.8799 99.6162 30.2538 98.8891C30.84 97.7493 31.2399 96.6778 32.009 95.6182C32.6837 94.6885 33.5457 93.4322 34.7773 93.4322C35.1496 93.4322 35.5685 93.3737 35.9341 93.4402C36.9735 93.6292 36.8595 95.0077 36.8595 95.7618C36.8595 97.2168 37.2674 98.6246 37.2903 100.07C37.3056 101.03 37.5236 102.313 36.4208 102.695C35.5551 102.994 34.5024 103.011 33.5966 102.894C31.8384 102.667 30.2421 102.426 28.4349 102.575C26.8064 102.709 25.2788 103.176 23.7119 103.596C23.1853 103.737 23.1336 104.028 23.6481 104.314C24.2702 104.66 24.7332 104.943 25.0921 105.607C26.1806 107.62 26.8227 109.957 27.661 112.085C28.1522 113.332 28.8342 114.548 29.2167 115.834C29.5478 116.948 29.5358 117.876 29.5358 119.057C29.5358 119.319 29.3011 119.703 29.1768 119.927C28.9839 120.274 29.0637 120.825 28.9534 121.211C28.8446 121.592 28.3163 121.46 28.2434 121.132C27.8064 119.165 27.8126 117.244 27.8126 115.228C27.8126 113.956 27.773 112.649 28.0439 111.398C28.2316 110.532 28.5251 109.698 28.7061 108.83C28.9873 107.48 29.105 106.164 29.105 104.777C29.105 104.139 28.692 101.961 29.464 101.618C30.3778 101.211 31.7567 101.176 32.7429 101.075C33.7577 100.972 34.7622 100.9 35.7825 100.9C36.0527 100.9 37.1282 100.712 37.402 100.931C37.7697 101.226 38.2486 101.413 38.7264 101.466C39.3818 101.539 40.2172 101.571 40.8006 101.905C41.304 102.192 40.5074 103.363 40.3379 103.564C39.8608 104.13 38.9577 105.001 38.2158 105.176C37.3562 105.378 37.2903 103.336 37.2903 102.886C37.2903 102.008 37.1471 100.971 37.7212 100.253C37.9149 100.011 38.1936 100.033 38.4073 99.8624C39.7133 98.8176 39.5928 102.163 39.5561 102.527C39.3719 104.352 37.4983 105.891 36.7478 107.553C36.5475 107.997 36.1763 108.941 35.6389 108.941C35.2893 108.941 34.6308 109.083 34.3465 108.862C33.8851 108.503 33.5487 108.356 33.0142 108.191C32.4871 108.029 32.5515 107.901 32.5515 107.362C32.5515 106.039 33.4069 105.516 34.4981 104.92C35.9623 104.122 36.4848 104.546 37.5456 105.607C38.8889 106.95 38.4392 109.361 38.4392 111.071C38.4392 113.097 36.5449 113.538 34.9129 112.962C33.5502 112.481 33.0802 110.84 33.5008 109.532C33.9734 108.061 38.4491 108.041 39.4125 108.654C39.9555 109 40.0824 109.924 39.9231 110.489C39.1556 113.21 35.8476 115.535 33.0142 114.685C31.88 114.345 30.7119 112.937 30.541 111.781C30.4409 111.104 30.0786 110.158 30.9798 110.098C31.7502 110.047 32.5383 110.09 33.3094 110.09C34.7288 110.09 35.6265 110.655 36.0697 112.053C36.6747 113.961 37.2049 116.169 37.2903 118.164C37.3119 118.667 37.8505 120.573 36.9712 120.573C35.9897 120.573 34.9598 120.673 33.9875 120.565C33.6371 120.526 33.0348 120.213 32.7669 119.999C32.1691 119.52 33.1169 119.181 33.4929 118.993C34.7011 118.389 35.9817 117.898 37.2903 117.557C37.7307 117.443 39.1718 117.399 39.3088 116.919C39.5055 116.23 39.7267 114.75 39.3008 114.111" stroke="#92DA63" stroke-width="5" stroke-linecap="round"/>
<path d="M40.9161 76.9839C41.132 76.7681 41.3794 76.5601 41.6762 76.4941C42.0961 76.4008 42.4187 75.8629 42.8314 75.7712C43.2475 75.6788 43.542 75.3205 43.8955 75.1125C44.1098 74.9865 44.436 74.7342 44.6859 74.7342" stroke="#92DA63" stroke-width="5" stroke-linecap="round"/>
<path d="M39.6915 75.9838C39.6799 76.0766 38.4353 76.0156 38.2266 76.0156C37.9718 76.0156 37.717 76.0156 37.4622 76.0156C37.2661 76.0156 37.092 75.9519 36.9049 75.9519C36.6912 75.9519 36.4538 75.9125 36.252 75.8405C36.1621 75.8084 36.0264 75.7342 35.9335 75.729C35.7638 75.7196 35.9672 75.729 36.0291 75.729C36.2149 75.729 36.4006 75.729 36.5864 75.729C36.6943 75.729 36.7857 75.6438 36.889 75.6335C37.0335 75.619 37.1531 75.5698 37.303 75.5698C37.4727 75.5698 37.7226 75.6133 37.8762 75.545C37.9279 75.522 38.0919 75.5061 38.1469 75.5061C38.2721 75.5061 38.3745 75.4424 38.4973 75.4424C38.7536 75.4424 39.0687 75.4132 39.3164 75.3398C39.4546 75.2988 39.606 75.3189 39.7375 75.2814C39.7861 75.2675 40.0125 75.2403 40.0418 75.2035C40.0833 75.1518 40.2343 75.1929 40.2895 75.1487C40.3483 75.1017 40.4899 75.0792 40.5673 75.062C40.7347 75.0248 40.8982 74.9419 41.061 74.9328C41.1938 74.9254 41.3205 74.8485 41.4573 74.8355C41.6791 74.8144 41.896 74.7106 42.1119 74.6798C43.012 74.5512 43.9045 74.2719 44.8189 74.2322" stroke="#92DA63" stroke-width="5" stroke-linecap="round"/>
<path d="M23 158C23 158.276 23.2239 158.5 23.5 158.5C23.7761 158.5 24 158.276 24 158H23ZM23 132V158H24V132H23Z" fill="black"/>
<path d="M43 158C43 158.276 43.2239 158.5 43.5 158.5C43.7761 158.5 44 158.276 44 158H43ZM43 130V158H44V130H43Z" fill="black"/>
<path d="M16.938 35.5038L65 30" stroke="black" stroke-linecap="round"/>
<path d="M16.9451 36.0001C16 20.5 48.5 17.5 51 31.392" stroke="black"/>
<path d="M23.9262 30.6663C22.2689 30.6663 27.2551 30.7825 28.8972 30.5578C29.6062 30.4608 30.2941 30.3339 31.0111 30.3339C31.5749 30.3339 32.1524 30.372 32.7142 30.3247C33.3716 30.2694 34.0205 30.1076 34.6758 30.0339C35.0115 29.9962 35.3537 29.9856 35.6866 29.9393C35.9605 29.9013 36.2377 29.8837 36.5128 29.8562C36.8708 29.8204 37.2046 29.7194 37.5559 29.6462C38.8509 29.3764 40.0505 28.6647 41.2483 28.1323" stroke="#E44A77" stroke-width="5" stroke-linecap="round"/>
<path d="M25.7955 28.0908C28.4241 28.0908 31.0526 28.0908 33.6812 28.0908C34.1837 28.0908 34.7186 28.0402 35.2158 28.1231C35.629 28.1919 36.1042 28.1739 36.522 28.1739C37.3636 28.1739 38.2052 28.1739 39.0467 28.1739" stroke="#E44A77" stroke-width="5" stroke-linecap="round"/>
<path d="M40.1683 27.5923C41.0514 27.5923 41.9345 27.5923 42.8177 27.5923C43.173 27.5923 43.5284 27.5923 43.8838 27.5923C44.1275 27.5923 44.4122 27.5527 44.6454 27.6338C45.0155 27.7626 45.07 27.7978 45.07 28.2154" stroke="#E44A77" stroke-width="5" stroke-linecap="round"/>
<path d="M40.6419 30.8281C41.0852 30.8281 41.5498 30.8663 41.9875 30.7874C42.3758 30.7174 42.7363 30.5299 43.1109 30.4147C43.2573 30.3696 43.4056 30.33 43.5456 30.2668C43.6814 30.2055 43.7951 30.0982 43.9289 30.0296C44.1198 29.9317 44.3217 29.8178 44.5264 29.7516C44.5342 29.7491 44.6419 29.7189 44.6309 29.7127C44.5626 29.6736 44.4413 29.6967 44.3671 29.6967C44.1475 29.6967 43.9317 29.6856 43.7191 29.7516C43.441 29.838 43.1845 29.9859 42.9276 30.1199C42.6369 30.2715 42.3521 30.4279 42.076 30.605C41.5755 30.9262 41.0738 31.3053 40.5029 31.4956C40.4284 31.5204 40.5423 31.5126 40.5622 31.5098C40.7198 31.4873 40.876 31.4075 41.0279 31.3619C41.5449 31.2068 42.091 31.173 42.6267 31.1344C43.0918 31.1009 43.5571 31.1169 44.0218 31.0831C44.2541 31.0662 44.4958 31.004 44.7212 30.9476C44.875 30.9092 45.0361 30.8936 45.1833 30.8316C45.2592 30.7997 45.327 30.7585 45.4055 30.7095C45.6758 30.5405 46.0054 30.47 46.3147 30.4138" stroke="#E44A77" stroke-linecap="round"/>
<path d="M43.797 30.3819H44.4981" stroke="#E44A77" stroke-linecap="round"/>
<path d="M18.318 34.3247C18.831 34.3247 19.3441 34.3247 19.8571 34.3247C20.2173 34.3247 20.5573 34.3411 20.9005 34.2175C21.1319 34.1342 21.3763 34.0871 21.6062 34.0021C21.8279 33.9202 22.0354 33.783 22.2037 33.6146C22.3481 33.4703 22.4616 33.2945 22.5371 33.1016C22.5637 33.0335 22.5967 32.8826 22.5371 32.8245C22.3933 32.6845 22.0532 32.6631 21.866 32.6405C21.6679 32.6166 21.3928 32.6031 21.2036 32.6719C20.9836 32.7519 20.7898 32.9415 20.6191 33.0951C20.512 33.1915 20.256 33.359 20.2468 33.5259C20.2458 33.544 20.2579 33.5868 20.2706 33.5995C20.2802 33.6091 20.3135 33.6038 20.3247 33.6038C20.5022 33.6038 20.6798 33.6066 20.8572 33.6027C21.1649 33.596 21.4719 33.5449 21.7275 33.3852C21.7608 33.3644 21.8553 33.2669 21.8714 33.2347C21.8819 33.2137 21.8245 33.2336 21.8011 33.2336C21.7494 33.2336 21.6967 33.2307 21.6452 33.2358C21.3829 33.262 21.1157 33.3896 20.8659 33.4674C20.6127 33.5464 20.3624 33.6203 20.1147 33.7164C19.9771 33.7698 19.8509 33.8456 19.7121 33.8961C19.6137 33.9318 19.5475 33.935 19.4328 33.935C19.3498 33.935 19.0389 33.9889 19.0389 33.8809C19.0389 33.6211 19.3205 33.4661 19.501 33.3181C19.8206 33.056 20.1351 32.8084 20.4903 32.594C20.8831 32.3568 21.3171 32.1887 21.7036 31.9435C22.1563 31.6562 22.588 31.3415 23.0393 31.0527C23.0736 31.0307 23.1239 31.0157 23.1497 30.9834C23.2201 30.8954 22.9512 31.0908 22.8575 31.1533C22.6757 31.2745 22.5185 31.43 22.3596 31.5787C22.0555 31.8632 21.7629 32.1568 21.4807 32.463C21.2076 32.7593 20.9569 33.0547 20.7274 33.3852C20.5776 33.6009 20.7884 33.5255 20.9243 33.5497C21.2119 33.6008 21.5204 33.6049 21.8119 33.5735C22.1456 33.5376 22.4317 33.4099 22.7297 33.2737C22.7377 33.2701 22.8929 33.2039 22.8358 33.1958C22.756 33.1844 22.6651 33.1932 22.5847 33.1947C22.5112 33.1961 22.4429 33.2264 22.3704 33.2336C22.2139 33.2493 22.4908 33.2531 22.5252 33.2531C22.857 33.2531 23.1798 33.2127 23.5101 33.1849C23.8332 33.1578 24.1646 33.1448 24.4853 33.0973C24.5966 33.0808 24.7157 33.0776 24.8252 33.054C24.9088 33.0359 24.9966 33.0518 25.0785 33.0291C25.1457 33.0104 25.2336 33.0065 25.3036 33.0009C25.3981 32.9934 25.491 32.9658 25.585 32.9609C25.7323 32.9531 25.8804 32.8911 26.0256 32.8635C26.168 32.8363 26.3028 32.8139 26.4433 32.7758C26.6147 32.7294 26.7654 32.6368 26.9293 32.5712" stroke="#E44A77" stroke-linecap="round"/>
<rect x="178" y="13" width="80" height="33" fill="#00AAFF"/>
<rect x="258" y="13" width="80" height="33" fill="#0093DD"/>
<rect x="178" y="53" width="80" height="33" fill="#92DA63"/>
<rect x="258" y="53" width="80" height="33" fill="#85C75A"/>
<rect x="178" y="93" width="80" height="33" fill="#E44A77"/>
<rect x="258" y="93" width="80" height="33" fill="#CB416A"/>
<rect x="198" y="46" width="60" height="7" fill="#444444"/>
<rect x="258" y="46" width="60" height="7" fill="#262626"/>
<rect x="198" y="86" width="60" height="7" fill="#444444"/>
<rect x="258" y="86" width="60" height="7" fill="#262626"/>
<rect x="198" y="126" width="60" height="7" fill="#444444"/>
<rect x="258" y="126" width="60" height="7" fill="#262626"/>
<rect x="186" y="66" width="16" height="8" fill="white"/>
<rect x="186" y="106" width="16" height="8" fill="white"/>
<rect x="186" y="25" width="16" height="8" fill="white"/>
</svg>
