<svg width="98" height="20" viewBox="0 0 98 20" fill="none" xmlns="http://www.w3.org/2000/svg">
<path d="M0.930808 15V0.00947213H6.0127C7.68541 0.00947213 9.09586 0.300069 10.2441 0.881262C11.4065 1.46245 12.2853 2.31298 12.8807 3.43284C13.4761 4.53853 13.7738 5.89228 13.7738 7.4941C13.7738 9.09593 13.4761 10.4568 12.8807 11.5766C12.2853 12.6965 11.4065 13.547 10.2441 14.1282C9.09586 14.7094 7.68541 15 6.0127 15H0.930808ZM2.90828 13.3202H5.86386C7.8626 13.3202 9.34393 12.8382 10.3079 11.8743C11.2718 10.9104 11.7538 9.45032 11.7538 7.4941C11.7538 5.53789 11.2718 4.08491 10.3079 3.13516C9.34393 2.17123 7.8626 1.68926 5.86386 1.68926H2.90828V13.3202ZM20.4717 15.1914C19.1817 15.1914 18.2107 14.8441 17.5586 14.1495C16.9207 13.4549 16.6018 12.3846 16.6018 10.9387V4.30463H18.5367V10.8962C18.5367 11.8318 18.7281 12.5193 19.1108 12.9587C19.4935 13.3982 20.0889 13.6179 20.8969 13.6179C21.7758 13.6179 22.4846 13.3273 23.0232 12.7461C23.5761 12.1507 23.8525 11.364 23.8525 10.3859V4.30463H25.7874V15H23.9163V12.6398H24.1927C23.895 13.4478 23.4201 14.0786 22.7681 14.5322C22.116 14.9716 21.3505 15.1914 20.4717 15.1914ZM29.0414 15V6.83495C29.0414 6.42386 29.0272 6.00568 28.9988 5.58042C28.9705 5.15516 28.928 4.72989 28.8713 4.30463H30.7424L30.9551 6.60105H30.6999C30.9834 5.80723 31.437 5.19768 32.0607 4.77242C32.6845 4.33298 33.4287 4.11326 34.2934 4.11326C35.1722 4.11326 35.8952 4.32589 36.4622 4.75116C37.0292 5.16224 37.412 5.81432 37.6104 6.70737H37.2915C37.5608 5.91354 38.0357 5.28274 38.7161 4.81495C39.3965 4.34716 40.1904 4.11326 41.0976 4.11326C42.2741 4.11326 43.1601 4.46056 43.7555 5.15516C44.3508 5.83558 44.6485 6.89874 44.6485 8.34463V15H42.7136V8.45095C42.7136 7.47284 42.5435 6.77116 42.2033 6.34589C41.8631 5.90646 41.3244 5.68674 40.5873 5.68674C39.7226 5.68674 39.0421 5.98442 38.546 6.57979C38.0499 7.16098 37.8018 7.95481 37.8018 8.96126V15H35.8668V8.45095C35.8668 7.47284 35.6967 6.77116 35.3565 6.34589C35.0305 5.90646 34.4918 5.68674 33.7405 5.68674C32.8758 5.68674 32.1954 5.98442 31.6993 6.57979C31.2173 7.16098 30.9763 7.95481 30.9763 8.96126V15H29.0414ZM47.8128 15V6.83495C47.8128 6.42386 47.7986 6.00568 47.7702 5.58042C47.7419 5.15516 47.6993 4.72989 47.6426 4.30463H49.5138L49.7264 6.60105H49.4713C49.7548 5.80723 50.2084 5.19768 50.8321 4.77242C51.4558 4.33298 52.2 4.11326 53.0648 4.11326C53.9436 4.11326 54.6666 4.32589 55.2336 4.75116C55.8006 5.16224 56.1833 5.81432 56.3818 6.70737H56.0629C56.3322 5.91354 56.8071 5.28274 57.4875 4.81495C58.1679 4.34716 58.9617 4.11326 59.869 4.11326C61.0455 4.11326 61.9315 4.46056 62.5269 5.15516C63.1222 5.83558 63.4199 6.89874 63.4199 8.34463V15H61.485V8.45095C61.485 7.47284 61.3149 6.77116 60.9746 6.34589C60.6344 5.90646 60.0958 5.68674 59.3586 5.68674C58.4939 5.68674 57.8135 5.98442 57.3174 6.57979C56.8212 7.16098 56.5732 7.95481 56.5732 8.96126V15H54.6382V8.45095C54.6382 7.47284 54.4681 6.77116 54.1279 6.34589C53.8019 5.90646 53.2632 5.68674 52.5119 5.68674C51.6472 5.68674 50.9668 5.98442 50.4706 6.57979C49.9887 7.16098 49.7477 7.95481 49.7477 8.96126V15H47.8128ZM66.1188 19.8267L65.6723 18.2533C66.3385 18.0973 66.8914 17.9131 67.3308 17.7004C67.7703 17.502 68.1388 17.2397 68.4365 16.9137C68.7342 16.5876 68.9964 16.1766 69.2233 15.6804L69.7548 14.4046L69.7123 15.2126L65.0557 4.30463H67.1395L70.8605 13.4691H70.3077L74.0287 4.30463H76.0275L71.1157 15.8293C70.818 16.5239 70.492 17.1051 70.1376 17.5728C69.7974 18.0406 69.4217 18.4234 69.0106 18.7211C68.6137 19.0187 68.1743 19.2526 67.6923 19.4227C67.2103 19.5928 66.6858 19.7275 66.1188 19.8267Z" fill="black"/>
<path d="M84.2601 15.2339C82.0204 15.2339 80.3406 14.6811 79.2208 13.5754C78.1009 12.4697 77.541 10.8182 77.541 8.62105V0.00947213H81.4534V8.64231C81.4534 9.73382 81.6802 10.5631 82.1338 11.1301C82.5874 11.6829 83.2962 11.9594 84.2601 11.9594C85.2241 11.9594 85.9328 11.6829 86.3864 11.1301C86.8401 10.5631 87.0669 9.73382 87.0669 8.64231V0.00947213H90.9368V8.62105C90.9368 10.8182 90.3839 12.4697 89.2782 13.5754C88.1726 14.6811 86.4999 15.2339 84.2601 15.2339ZM93.5729 15V0.00947213H97.5066V15H93.5729Z" fill="#00AAFF"/>
</svg>
