<svg width="650" height="484" viewBox="0 0 237 177" fill="none" xmlns="http://www.w3.org/2000/svg">
<path d="M89.6881 48V42.288H75.7681V36.144L91.0321 14.16H98.0881V35.712H102.504V42.288H98.0881V48H89.6881ZM89.6881 35.712V24.624H90.9361L81.9601 37.728V35.712H89.6881Z" fill="#00AAFF"/>
<path d="M117.509 48.528C113.349 48.528 110.149 47.008 107.909 43.968C105.701 40.896 104.597 36.56 104.597 30.96C104.597 25.296 105.701 20.992 107.909 18.048C110.149 15.104 113.349 13.632 117.509 13.632C121.701 13.632 124.901 15.104 127.109 18.048C129.317 20.992 130.421 25.28 130.421 30.912C130.421 36.544 129.301 40.896 127.061 43.968C124.853 47.008 121.669 48.528 117.509 48.528ZM117.509 41.472C119.045 41.472 120.181 40.64 120.917 38.976C121.685 37.312 122.069 34.64 122.069 30.96C122.069 27.248 121.685 24.608 120.917 23.04C120.181 21.44 119.045 20.64 117.509 20.64C115.973 20.64 114.821 21.44 114.053 23.04C113.317 24.608 112.949 27.232 112.949 30.912C112.949 34.624 113.317 37.312 114.053 38.976C114.821 40.64 115.973 41.472 117.509 41.472Z" fill="#92DA63"/>
<path d="M147.251 48V42.288H133.331V36.144L148.595 14.16H155.651V35.712H160.067V42.288H155.651V48H147.251ZM147.251 35.712V24.624H148.499L139.523 37.728V35.712H147.251Z" fill="#E44A77"/>
<rect x="70" y="60" width="75" height="75" fill="#00AAFF"/>
<rect x="145" y="60" width="22" height="75" fill="#4AC3FF"/>
<rect width="75" height="11" transform="matrix(1 0 -0.424357 0.905495 69.668 60)" fill="#4AC3FF"/>
<rect width="22" height="11.0437" transform="matrix(1 0 0.424357 0.905495 145 60)" fill="#00AAFF"/>
<rect x="155.133" y="98" width="47" height="47" fill="#E44A77"/>
<rect x="202.133" y="98" width="13.7867" height="47" fill="#E57092"/>
<rect width="47" height="6.89333" transform="matrix(1 0 -0.424357 0.905495 154.925 98)" fill="#E57092"/>
<rect width="13.7867" height="6.92071" transform="matrix(1 0 0.424357 0.905495 202.133 98)" fill="#E44A77"/>
<rect x="21.1334" y="98" width="47" height="47" fill="#8BD760"/>
<rect x="68.1334" y="98" width="13.7867" height="47" fill="#92E55D"/>
<rect width="47" height="6.89333" transform="matrix(1 0 -0.424357 0.905495 20.9253 98)" fill="#92E55D"/>
<rect width="13.7867" height="6.92071" transform="matrix(1 0 0.424357 0.905495 68.1334 98)" fill="#8BD760"/>
<path d="M1.6241 172V159.31H4.9541V172H1.6241ZM11.8018 172.198C10.5058 172.198 9.52784 171.892 8.86784 171.28C8.21984 170.656 7.89584 169.714 7.89584 168.454V165.214H6.18584V162.856H7.89584V160.696L11.0998 159.94V162.856H13.3318V165.214H11.0998V168.328C11.0998 168.856 11.2198 169.21 11.4598 169.39C11.6998 169.558 11.9878 169.642 12.3238 169.642C12.5278 169.642 12.7018 169.63 12.8458 169.606C13.0018 169.57 13.1638 169.522 13.3318 169.462V171.928C13.0678 172.036 12.8038 172.108 12.5398 172.144C12.2878 172.18 12.0418 172.198 11.8018 172.198ZM15.9764 165.376L14.7884 164.422C15.2444 163.966 15.5744 163.534 15.7784 163.126C15.9824 162.718 16.0844 162.28 16.0844 161.812L16.7864 162.586H14.4824V159.31H17.8124V161.38C17.8124 162.136 17.6744 162.826 17.3984 163.45C17.1344 164.062 16.6604 164.704 15.9764 165.376ZM22.6201 172.198C21.7681 172.198 20.9941 172.114 20.2981 171.946C19.6141 171.766 19.0321 171.526 18.5521 171.226L19.3261 169.138C19.7941 169.402 20.3161 169.618 20.8921 169.786C21.4801 169.954 22.0621 170.038 22.6381 170.038C23.0941 170.038 23.4241 169.972 23.6281 169.84C23.8441 169.696 23.9521 169.51 23.9521 169.282C23.9521 169.102 23.8861 168.958 23.7541 168.85C23.6221 168.742 23.4241 168.664 23.1601 168.616L21.2161 168.274C20.4481 168.13 19.8481 167.848 19.4161 167.428C18.9961 166.996 18.7861 166.438 18.7861 165.754C18.7861 165.13 18.9541 164.59 19.2901 164.134C19.6261 163.666 20.1061 163.306 20.7301 163.054C21.3541 162.79 22.0921 162.658 22.9441 162.658C23.6401 162.658 24.3001 162.736 24.9241 162.892C25.5601 163.048 26.1121 163.294 26.5801 163.63L25.7521 165.664C25.3801 165.412 24.9421 165.208 24.4381 165.052C23.9461 164.884 23.4841 164.8 23.0521 164.8C22.5361 164.8 22.1701 164.878 21.9541 165.034C21.7381 165.178 21.6301 165.358 21.6301 165.574C21.6301 165.742 21.6901 165.886 21.8101 166.006C21.9301 166.114 22.1221 166.192 22.3861 166.24L24.3301 166.582C25.1221 166.714 25.7281 166.99 26.1481 167.41C26.5801 167.818 26.7961 168.376 26.7961 169.084C26.7961 169.744 26.6161 170.308 26.2561 170.776C25.9081 171.232 25.4221 171.586 24.7981 171.838C24.1741 172.078 23.4481 172.198 22.6201 172.198ZM38.0987 172.198C36.8027 172.198 35.8247 171.892 35.1647 171.28C34.5167 170.656 34.1927 169.714 34.1927 168.454V165.214H32.4827V162.856H34.1927V160.696L37.3967 159.94V162.856H39.6287V165.214H37.3967V168.328C37.3967 168.856 37.5167 169.21 37.7567 169.39C37.9967 169.558 38.2847 169.642 38.6207 169.642C38.8247 169.642 38.9987 169.63 39.1427 169.606C39.2987 169.57 39.4607 169.522 39.6287 169.462V171.928C39.3647 172.036 39.1007 172.108 38.8367 172.144C38.5847 172.18 38.3387 172.198 38.0987 172.198ZM40.8718 172V162.856H44.0758V172H40.8718ZM40.7998 161.56V158.68H44.1658V161.56H40.7998ZM46.0574 172V165.34C46.0574 164.932 46.0454 164.518 46.0214 164.098C45.9974 163.678 45.9614 163.264 45.9134 162.856H49.0094L49.1894 164.44H48.9914C49.2554 163.888 49.6454 163.456 50.1614 163.144C50.6774 162.82 51.2834 162.658 51.9794 162.658C52.6514 162.658 53.2214 162.82 53.6894 163.144C54.1694 163.456 54.5174 163.954 54.7334 164.638H54.4274C54.7274 164.014 55.1594 163.528 55.7234 163.18C56.2994 162.832 56.9414 162.658 57.6494 162.658C58.6934 162.658 59.4734 162.976 59.9894 163.612C60.5054 164.236 60.7634 165.214 60.7634 166.546V172H57.5414V166.654C57.5414 166.09 57.4574 165.694 57.2894 165.466C57.1214 165.226 56.8514 165.106 56.4794 165.106C56.0114 165.106 55.6454 165.274 55.3814 165.61C55.1294 165.946 55.0034 166.408 55.0034 166.996V172H51.7994V166.654C51.7994 166.09 51.7094 165.694 51.5294 165.466C51.3614 165.226 51.0974 165.106 50.7374 165.106C50.2694 165.106 49.9034 165.274 49.6394 165.61C49.3874 165.946 49.2614 166.408 49.2614 166.996V172H46.0574ZM67.5103 172.198C65.8543 172.198 64.5643 171.772 63.6403 170.92C62.7283 170.068 62.2723 168.898 62.2723 167.41C62.2723 166.486 62.4643 165.664 62.8483 164.944C63.2323 164.224 63.7723 163.666 64.4683 163.27C65.1643 162.862 65.9803 162.658 66.9163 162.658C67.8403 162.658 68.6083 162.862 69.2203 163.27C69.8443 163.666 70.3123 164.218 70.6243 164.926C70.9363 165.622 71.0923 166.432 71.0923 167.356V168.04H64.9543V166.528H68.7343L68.4283 166.78C68.4283 166.096 68.2963 165.592 68.0323 165.268C67.7803 164.932 67.4203 164.764 66.9523 164.764C66.4123 164.764 65.9983 164.968 65.7103 165.376C65.4343 165.772 65.2963 166.372 65.2963 167.176V167.5C65.2963 168.304 65.4943 168.892 65.8903 169.264C66.2863 169.636 66.8563 169.822 67.6003 169.822C68.0803 169.822 68.5303 169.768 68.9503 169.66C69.3823 169.552 69.7903 169.378 70.1743 169.138L71.0023 171.226C70.5463 171.538 70.0183 171.778 69.4183 171.946C68.8183 172.114 68.1823 172.198 67.5103 172.198ZM82.5011 172.198C81.2051 172.198 80.2271 171.892 79.5671 171.28C78.9191 170.656 78.5951 169.714 78.5951 168.454V165.214H76.8851V162.856H78.5951V160.696L81.7991 159.94V162.856H84.0311V165.214H81.7991V168.328C81.7991 168.856 81.9191 169.21 82.1591 169.39C82.3991 169.558 82.6871 169.642 83.0231 169.642C83.2271 169.642 83.4011 169.63 83.5451 169.606C83.7011 169.57 83.8631 169.522 84.0311 169.462V171.928C83.7671 172.036 83.5031 172.108 83.2391 172.144C82.9871 172.18 82.7411 172.198 82.5011 172.198ZM89.7583 172.198C88.7383 172.198 87.8563 172.006 87.1123 171.622C86.3683 171.238 85.7923 170.692 85.3843 169.984C84.9763 169.264 84.7723 168.412 84.7723 167.428C84.7723 166.432 84.9763 165.58 85.3843 164.872C85.7923 164.164 86.3683 163.618 87.1123 163.234C87.8563 162.85 88.7383 162.658 89.7583 162.658C90.7663 162.658 91.6423 162.85 92.3863 163.234C93.1303 163.618 93.7063 164.17 94.1143 164.89C94.5223 165.598 94.7263 166.444 94.7263 167.428C94.7263 168.4 94.5223 169.246 94.1143 169.966C93.7063 170.686 93.1303 171.238 92.3863 171.622C91.6423 172.006 90.7663 172.198 89.7583 172.198ZM89.7583 169.822C90.2863 169.822 90.7063 169.636 91.0183 169.264C91.3303 168.88 91.4863 168.268 91.4863 167.428C91.4863 166.588 91.3303 165.982 91.0183 165.61C90.7063 165.226 90.2863 165.034 89.7583 165.034C89.2183 165.034 88.7923 165.226 88.4803 165.61C88.1683 165.982 88.0123 166.588 88.0123 167.428C88.0123 168.268 88.1683 168.88 88.4803 169.264C88.7923 169.636 89.2183 169.822 89.7583 169.822ZM105.981 176.032C105.069 176.032 104.265 175.948 103.569 175.78C102.885 175.624 102.267 175.378 101.715 175.042L102.273 172.774C102.597 172.966 102.951 173.128 103.335 173.26C103.719 173.392 104.115 173.488 104.523 173.548C104.943 173.62 105.339 173.656 105.711 173.656C106.479 173.656 107.049 173.476 107.421 173.116C107.793 172.768 107.979 172.27 107.979 171.622V170.02H108.159C107.967 170.548 107.589 170.974 107.025 171.298C106.461 171.61 105.837 171.766 105.153 171.766C104.337 171.766 103.623 171.586 103.011 171.226C102.411 170.854 101.937 170.326 101.589 169.642C101.253 168.958 101.085 168.148 101.085 167.212C101.085 166.276 101.253 165.466 101.589 164.782C101.937 164.098 102.411 163.576 103.011 163.216C103.623 162.844 104.337 162.658 105.153 162.658C105.861 162.658 106.485 162.814 107.025 163.126C107.565 163.438 107.931 163.852 108.123 164.368L107.979 164.332L108.177 162.856H111.255C111.207 163.264 111.171 163.678 111.147 164.098C111.123 164.518 111.111 164.932 111.111 165.34V171.262C111.111 172.798 110.673 173.974 109.797 174.79C108.921 175.618 107.649 176.032 105.981 176.032ZM106.143 169.39C106.695 169.39 107.133 169.204 107.457 168.832C107.781 168.46 107.943 167.92 107.943 167.212C107.943 166.492 107.781 165.952 107.457 165.592C107.133 165.22 106.695 165.034 106.143 165.034C105.579 165.034 105.135 165.22 104.811 165.592C104.487 165.952 104.325 166.492 104.325 167.212C104.325 167.92 104.487 168.46 104.811 168.832C105.135 169.204 105.579 169.39 106.143 169.39ZM117.907 172.198C116.251 172.198 114.961 171.772 114.037 170.92C113.125 170.068 112.669 168.898 112.669 167.41C112.669 166.486 112.861 165.664 113.245 164.944C113.629 164.224 114.169 163.666 114.865 163.27C115.561 162.862 116.377 162.658 117.313 162.658C118.237 162.658 119.005 162.862 119.617 163.27C120.241 163.666 120.709 164.218 121.021 164.926C121.333 165.622 121.489 166.432 121.489 167.356V168.04H115.351V166.528H119.131L118.825 166.78C118.825 166.096 118.693 165.592 118.429 165.268C118.177 164.932 117.817 164.764 117.349 164.764C116.809 164.764 116.395 164.968 116.107 165.376C115.831 165.772 115.693 166.372 115.693 167.176V167.5C115.693 168.304 115.891 168.892 116.287 169.264C116.683 169.636 117.253 169.822 117.997 169.822C118.477 169.822 118.927 169.768 119.347 169.66C119.779 169.552 120.187 169.378 120.571 169.138L121.399 171.226C120.943 171.538 120.415 171.778 119.815 171.946C119.215 172.114 118.579 172.198 117.907 172.198ZM127.624 172.198C126.328 172.198 125.35 171.892 124.69 171.28C124.042 170.656 123.718 169.714 123.718 168.454V165.214H122.008V162.856H123.718V160.696L126.922 159.94V162.856H129.154V165.214H126.922V168.328C126.922 168.856 127.042 169.21 127.282 169.39C127.522 169.558 127.81 169.642 128.146 169.642C128.35 169.642 128.524 169.63 128.668 169.606C128.824 169.57 128.986 169.522 129.154 169.462V171.928C128.89 172.036 128.626 172.108 128.362 172.144C128.11 172.18 127.864 172.198 127.624 172.198ZM140.172 172.198C139.152 172.198 138.27 172.006 137.526 171.622C136.782 171.238 136.206 170.692 135.798 169.984C135.39 169.264 135.186 168.412 135.186 167.428C135.186 166.432 135.39 165.58 135.798 164.872C136.206 164.164 136.782 163.618 137.526 163.234C138.27 162.85 139.152 162.658 140.172 162.658C141.18 162.658 142.056 162.85 142.8 163.234C143.544 163.618 144.12 164.17 144.528 164.89C144.936 165.598 145.14 166.444 145.14 167.428C145.14 168.4 144.936 169.246 144.528 169.966C144.12 170.686 143.544 171.238 142.8 171.622C142.056 172.006 141.18 172.198 140.172 172.198ZM140.172 169.822C140.7 169.822 141.12 169.636 141.432 169.264C141.744 168.88 141.9 168.268 141.9 167.428C141.9 166.588 141.744 165.982 141.432 165.61C141.12 165.226 140.7 165.034 140.172 165.034C139.632 165.034 139.206 165.226 138.894 165.61C138.582 165.982 138.426 166.588 138.426 167.428C138.426 168.268 138.582 168.88 138.894 169.264C139.206 169.636 139.632 169.822 140.172 169.822ZM150.076 172.198C148.912 172.198 148.048 171.88 147.484 171.244C146.932 170.596 146.656 169.618 146.656 168.31V162.856H149.86V168.328C149.86 168.808 149.956 169.168 150.148 169.408C150.352 169.636 150.658 169.75 151.066 169.75C151.522 169.75 151.894 169.588 152.182 169.264C152.482 168.928 152.632 168.49 152.632 167.95V162.856H155.836V172H152.722V170.362H152.992C152.704 170.95 152.314 171.406 151.822 171.73C151.33 172.042 150.748 172.198 150.076 172.198ZM162.517 172.198C161.221 172.198 160.243 171.892 159.583 171.28C158.935 170.656 158.611 169.714 158.611 168.454V165.214H156.901V162.856H158.611V160.696L161.815 159.94V162.856H164.047V165.214H161.815V168.328C161.815 168.856 161.935 169.21 162.175 169.39C162.415 169.558 162.703 169.642 163.039 169.642C163.243 169.642 163.417 169.63 163.561 169.606C163.717 169.57 163.879 169.522 164.047 169.462V171.928C163.783 172.036 163.519 172.108 163.255 172.144C163.003 172.18 162.757 172.198 162.517 172.198ZM175.065 172.198C174.045 172.198 173.163 172.006 172.419 171.622C171.675 171.238 171.099 170.692 170.691 169.984C170.283 169.264 170.079 168.412 170.079 167.428C170.079 166.432 170.283 165.58 170.691 164.872C171.099 164.164 171.675 163.618 172.419 163.234C173.163 162.85 174.045 162.658 175.065 162.658C176.073 162.658 176.949 162.85 177.693 163.234C178.437 163.618 179.013 164.17 179.421 164.89C179.829 165.598 180.033 166.444 180.033 167.428C180.033 168.4 179.829 169.246 179.421 169.966C179.013 170.686 178.437 171.238 177.693 171.622C176.949 172.006 176.073 172.198 175.065 172.198ZM175.065 169.822C175.593 169.822 176.013 169.636 176.325 169.264C176.637 168.88 176.793 168.268 176.793 167.428C176.793 166.588 176.637 165.982 176.325 165.61C176.013 165.226 175.593 165.034 175.065 165.034C174.525 165.034 174.099 165.226 173.787 165.61C173.475 165.982 173.319 166.588 173.319 167.428C173.319 168.268 173.475 168.88 173.787 169.264C174.099 169.636 174.525 169.822 175.065 169.822ZM182.288 172V165.214H180.578V162.856H183.188L182.288 163.684V162.442C182.288 161.182 182.618 160.24 183.278 159.616C183.938 158.992 184.934 158.68 186.266 158.68C186.566 158.68 186.884 158.698 187.22 158.734C187.556 158.77 187.856 158.842 188.12 158.95V161.398C187.952 161.338 187.76 161.296 187.544 161.272C187.328 161.236 187.118 161.218 186.914 161.218C186.674 161.218 186.44 161.26 186.212 161.344C185.996 161.416 185.816 161.548 185.672 161.74C185.54 161.932 185.474 162.196 185.474 162.532V163.342L185.024 162.856H187.688V165.214H185.492V172H182.288ZM193.995 172V158.752H197.199V164.458H196.929C197.229 163.87 197.655 163.426 198.207 163.126C198.759 162.814 199.389 162.658 200.097 162.658C201.165 162.658 201.963 162.976 202.491 163.612C203.019 164.248 203.283 165.214 203.283 166.51V172H200.079V166.654C200.079 166.102 199.977 165.706 199.773 165.466C199.581 165.226 199.287 165.106 198.891 165.106C198.375 165.106 197.961 165.268 197.649 165.592C197.349 165.916 197.199 166.342 197.199 166.87V172H193.995ZM210.034 172.198C208.378 172.198 207.088 171.772 206.164 170.92C205.252 170.068 204.796 168.898 204.796 167.41C204.796 166.486 204.988 165.664 205.372 164.944C205.756 164.224 206.296 163.666 206.992 163.27C207.688 162.862 208.504 162.658 209.44 162.658C210.364 162.658 211.132 162.862 211.744 163.27C212.368 163.666 212.836 164.218 213.148 164.926C213.46 165.622 213.616 166.432 213.616 167.356V168.04H207.478V166.528H211.258L210.952 166.78C210.952 166.096 210.82 165.592 210.556 165.268C210.304 164.932 209.944 164.764 209.476 164.764C208.936 164.764 208.522 164.968 208.234 165.376C207.958 165.772 207.82 166.372 207.82 167.176V167.5C207.82 168.304 208.018 168.892 208.414 169.264C208.81 169.636 209.38 169.822 210.124 169.822C210.604 169.822 211.054 169.768 211.474 169.66C211.906 169.552 212.314 169.378 212.698 169.138L213.526 171.226C213.07 171.538 212.542 171.778 211.942 171.946C211.342 172.114 210.706 172.198 210.034 172.198ZM215.141 172V165.358C215.141 164.938 215.129 164.518 215.105 164.098C215.081 163.678 215.045 163.264 214.997 162.856H218.093L218.435 165.664H217.949C218.069 164.98 218.261 164.416 218.525 163.972C218.789 163.528 219.119 163.198 219.515 162.982C219.911 162.766 220.379 162.658 220.919 162.658C221.171 162.658 221.357 162.67 221.477 162.694C221.609 162.706 221.747 162.742 221.891 162.802V165.61C221.591 165.478 221.351 165.394 221.171 165.358C220.991 165.322 220.757 165.304 220.469 165.304C219.977 165.304 219.575 165.394 219.263 165.574C218.951 165.742 218.723 166.006 218.579 166.366C218.447 166.726 218.381 167.188 218.381 167.752V172H215.141ZM227.524 172.198C225.868 172.198 224.578 171.772 223.654 170.92C222.742 170.068 222.286 168.898 222.286 167.41C222.286 166.486 222.478 165.664 222.862 164.944C223.246 164.224 223.786 163.666 224.482 163.27C225.178 162.862 225.994 162.658 226.93 162.658C227.854 162.658 228.622 162.862 229.234 163.27C229.858 163.666 230.326 164.218 230.638 164.926C230.95 165.622 231.106 166.432 231.106 167.356V168.04H224.968V166.528H228.748L228.442 166.78C228.442 166.096 228.31 165.592 228.046 165.268C227.794 164.932 227.434 164.764 226.966 164.764C226.426 164.764 226.012 164.968 225.724 165.376C225.448 165.772 225.31 166.372 225.31 167.176V167.5C225.31 168.304 225.508 168.892 225.904 169.264C226.3 169.636 226.87 169.822 227.614 169.822C228.094 169.822 228.544 169.768 228.964 169.66C229.396 169.552 229.804 169.378 230.188 169.138L231.016 171.226C230.56 171.538 230.032 171.778 229.432 171.946C228.832 172.114 228.196 172.198 227.524 172.198ZM233.118 167.716L232.128 159.31H236.052L235.044 167.716H233.118ZM232.416 172V168.724H235.746V172H232.416Z" fill="#92DA63"/>
</svg>
